<svg xmlns="http://www.w3.org/2000/svg" xmlns:xlink="http://www.w3.org/1999/xlink" width="500" zoomAndPan="magnify" viewBox="0 0 375 225" height="300" preserveAspectRatio="xMidYMid meet" version="1.0"><defs><g/><clipPath id="9d00cd3014"><path d="M 64 9 L 279 9 L 279 96 L 64 96 Z M 64 9 " clip-rule="nonzero"/></clipPath><clipPath id="ea16169ffe"><path d="M 59.433594 25.5 L 273.109375 -2.226562 L 283.679688 79.230469 L 70.003906 106.957031 Z M 59.433594 25.5 " clip-rule="nonzero"/></clipPath><clipPath id="d8c8f69c83"><path d="M 166.1875 11.644531 C 107.230469 19.296875 61.792969 43.675781 64.703125 66.09375 C 67.613281 88.515625 117.765625 100.488281 176.722656 92.835938 C 235.679688 85.1875 281.113281 60.808594 278.207031 38.390625 C 275.296875 15.96875 225.144531 3.996094 166.1875 11.644531 " clip-rule="nonzero"/></clipPath><clipPath id="889a0d7b3e"><path d="M 171 63 L 176 63 L 176 72 L 171 72 Z M 171 63 " clip-rule="nonzero"/></clipPath><clipPath id="2a547a438f"><path d="M 27.039062 16.34375 L 312.902344 -11.859375 L 321.960938 79.945312 L 36.097656 108.148438 Z M 27.039062 16.34375 " clip-rule="nonzero"/></clipPath><clipPath id="bd23b6b4d3"><path d="M 27.039062 16.34375 L 312.902344 -11.859375 L 345.890625 322.515625 L 60.03125 350.722656 Z M 27.039062 16.34375 " clip-rule="nonzero"/></clipPath><clipPath id="47a2843744"><path d="M 51 1 L 303 1 L 303 106 L 51 106 Z M 51 1 " clip-rule="nonzero"/></clipPath><clipPath id="40a20412f9"><path d="M 27.039062 16.34375 L 312.902344 -11.859375 L 321.960938 79.945312 L 36.097656 108.148438 Z M 27.039062 16.34375 " clip-rule="nonzero"/></clipPath><clipPath id="2ee8e5a109"><path d="M 27.039062 16.34375 L 312.902344 -11.859375 L 345.890625 322.515625 L 60.03125 350.722656 Z M 27.039062 16.34375 " clip-rule="nonzero"/></clipPath><clipPath id="3501a6df06"><path d="M 38 84 L 322 84 L 322 109 L 38 109 Z M 38 84 " clip-rule="nonzero"/></clipPath><clipPath id="600ff5f719"><path d="M 27.039062 16.34375 L 312.902344 -11.859375 L 321.960938 79.945312 L 36.097656 108.148438 Z M 27.039062 16.34375 " clip-rule="nonzero"/></clipPath><clipPath id="bc157637a9"><path d="M 27.039062 16.34375 L 312.902344 -11.859375 L 345.890625 322.515625 L 60.03125 350.722656 Z M 27.039062 16.34375 " clip-rule="nonzero"/></clipPath><clipPath id="8c95c5289c"><path d="M 57 151 L 319 151 L 319 222 L 57 222 Z M 57 151 " clip-rule="nonzero"/></clipPath><clipPath id="215372ddf5"><path d="M 41.484375 175.617188 L 337.792969 146.382812 L 342.875 197.882812 L 46.5625 227.117188 Z M 41.484375 175.617188 " clip-rule="nonzero"/></clipPath><clipPath id="8336dd34c2"><path d="M 12.394531 -119.214844 L 308.707031 -148.449219 L 342.875 197.871094 L 46.5625 227.105469 Z M 12.394531 -119.214844 " clip-rule="nonzero"/></clipPath></defs><g clip-path="url(#9d00cd3014)"><g clip-path="url(#ea16169ffe)"><g clip-path="url(#d8c8f69c83)"><path fill="#000000" d="M 59.433594 25.5 L 273.109375 -2.226562 L 283.679688 79.230469 L 70.003906 106.957031 Z M 59.433594 25.5 " fill-opacity="1" fill-rule="nonzero"/></g></g></g><g clip-path="url(#889a0d7b3e)"><g clip-path="url(#2a547a438f)"><g clip-path="url(#bd23b6b4d3)"><path fill="#0076ef" d="M 171.5625 67.636719 C 171.695312 66.578125 171.667969 65.667969 171.949219 64.863281 C 172.125 64.375 172.753906 63.753906 173.210938 63.722656 C 173.683594 63.695312 174.417969 64.210938 174.644531 64.675781 C 175.601562 66.679688 175.324219 68.722656 174.386719 70.664062 C 173.910156 71.640625 173.101562 71.503906 172.667969 70.667969 C 172.160156 69.683594 171.898438 68.574219 171.5625 67.636719 Z M 171.5625 67.636719 " fill-opacity="1" fill-rule="nonzero"/></g></g></g><g clip-path="url(#47a2843744)"><g clip-path="url(#40a20412f9)"><g clip-path="url(#2ee8e5a109)"><path fill="#efa216" d="M 177.554688 93.394531 C 137.511719 97.34375 97.464844 101.296875 57.417969 105.246094 C 53.335938 105.648438 52.699219 105.183594 52.125 101.199219 C 49.785156 84.84375 54.324219 70.199219 63.429688 56.792969 C 74.089844 41.105469 88.691406 29.960938 105.3125 21.289062 C 126.730469 10.128906 149.644531 4.28125 173.628906 2.503906 C 195.269531 0.898438 216.570312 2.785156 237.355469 9.28125 C 255.101562 14.828125 271.289062 23.148438 284.359375 36.699219 C 295.082031 47.8125 301.761719 60.855469 302.601562 76.53125 C 302.8125 80.4375 302.257812 81.089844 298.394531 81.480469 C 258.121094 85.445312 217.84375 89.417969 177.554688 93.394531 Z M 74.917969 77.425781 C 75.332031 78.597656 75.664062 79.980469 76.300781 81.199219 C 76.84375 82.242188 77.859375 82.421875 78.449219 81.199219 C 79.621094 78.78125 79.96875 76.226562 78.773438 73.722656 C 78.492188 73.136719 77.570312 72.496094 76.988281 72.53125 C 76.410156 72.566406 75.628906 73.34375 75.410156 73.957031 C 75.050781 74.960938 75.078125 76.101562 74.917969 77.425781 Z M 272.851562 51.910156 C 272.699219 51.339844 272.644531 50.578125 272.285156 50.003906 C 271.824219 49.261719 271.125 48.675781 270.519531 48.015625 C 269.945312 48.679688 269.164062 49.265625 268.859375 50.035156 C 268.488281 50.953125 268.386719 52.03125 268.429688 53.03125 C 268.484375 54.539062 269.09375 56.117188 270.800781 55.878906 C 271.578125 55.769531 272.183594 54.171875 272.777344 53.195312 C 272.957031 52.90625 272.832031 52.429688 272.851562 51.910156 Z M 213.355469 67.332031 C 214.816406 66.675781 216.089844 66.363281 217.019531 65.609375 C 217.59375 65.140625 218.046875 63.847656 217.796875 63.230469 C 217.546875 62.621094 216.324219 62.027344 215.578125 62.082031 C 214.460938 62.15625 213.222656 62.601562 212.339844 63.28125 C 211.503906 63.921875 211.050781 65.058594 210.429688 65.984375 C 211.425781 66.4375 212.410156 66.894531 213.355469 67.332031 Z M 170.671875 17.910156 C 172.03125 16.96875 173.179688 16.171875 174.328125 15.378906 C 173.191406 14.59375 172.128906 13.371094 170.894531 13.136719 C 169.605469 12.902344 168.097656 13.519531 166.777344 14.003906 C 166.496094 14.109375 166.324219 15.667969 166.578125 15.839844 C 167.742188 16.625 169.085938 17.148438 170.671875 17.910156 Z M 195.371094 21.019531 C 194.820312 19.601562 194.652344 18.390625 193.972656 17.640625 C 193.355469 16.96875 192.171875 16.808594 191.242188 16.425781 C 190.882812 17.375 190.222656 18.332031 190.238281 19.273438 C 190.261719 20.210938 190.78125 21.296875 191.425781 22.015625 C 192.128906 22.804688 193.226562 23.242188 194.15625 23.832031 C 194.589844 22.835938 195.019531 21.84375 195.371094 21.019531 Z M 158.257812 32.632812 C 158.308594 32.292969 158.359375 31.960938 158.410156 31.621094 C 157.019531 30.238281 155.707031 28.75 154.171875 27.546875 C 153.753906 27.21875 152.433594 27.550781 151.921875 28.011719 C 151.511719 28.382812 151.363281 29.761719 151.6875 30.085938 C 153.046875 31.410156 154.558594 32.613281 156.179688 33.605469 C 156.542969 33.828125 157.554688 32.984375 158.257812 32.632812 Z M 212.371094 36.710938 C 212.242188 35.273438 210.742188 34.265625 209.722656 35.207031 C 208.304688 36.519531 207.265625 38.289062 206.269531 39.980469 C 206.113281 40.246094 206.964844 41.597656 207.476562 41.675781 C 209.335938 41.964844 212.539062 38.574219 212.371094 36.710938 Z M 116.285156 63.890625 C 116.847656 64.726562 117.167969 65.699219 117.792969 65.960938 C 118.234375 66.144531 119.378906 65.558594 119.695312 65.019531 C 120.5 63.636719 121.214844 62.128906 121.550781 60.582031 C 121.675781 59.996094 120.78125 58.84375 120.09375 58.546875 C 119.597656 58.332031 118.332031 58.910156 118.011719 59.480469 C 117.253906 60.796875 116.867188 62.320312 116.285156 63.890625 Z M 129.25 26.328125 C 128.324219 25.324219 127.832031 24.355469 127.113281 24.148438 C 126.527344 23.976562 125.199219 24.523438 125.011719 25.046875 C 124.398438 26.753906 123.933594 28.585938 123.851562 30.386719 C 123.796875 31.597656 125.011719 32.328125 125.960938 31.265625 C 127.210938 29.871094 128.078125 28.132812 129.25 26.328125 Z M 250.140625 37.347656 C 251.527344 36.628906 252.992188 36.152344 254.066406 35.222656 C 254.632812 34.726562 254.882812 33.304688 254.585938 32.574219 C 254.382812 32.058594 252.902344 31.613281 252.210938 31.832031 C 250.914062 32.246094 249.652344 33.027344 248.625 33.945312 C 248.054688 34.453125 247.65625 35.625 247.828125 36.339844 C 247.945312 36.796875 249.230469 36.976562 250.140625 37.347656 Z M 163.699219 55.550781 C 165.054688 54.621094 166.242188 53.960938 167.1875 53.050781 C 167.453125 52.792969 167.171875 51.335938 166.882812 51.246094 C 165.679688 50.867188 164.316406 50.480469 163.125 50.695312 C 161.597656 50.972656 159.394531 51.433594 159.734375 53.445312 C 159.871094 54.289062 162.144531 54.777344 163.699219 55.550781 Z M 147.710938 74.101562 C 149.753906 75.929688 151.191406 77.375 152.824219 78.5625 C 153.214844 78.851562 154.40625 78.488281 154.902344 78.058594 C 155.285156 77.71875 155.371094 76.75 155.222656 76.148438 C 154.824219 74.515625 151.808594 72.308594 150.152344 72.492188 C 149.53125 72.554688 148.984375 73.226562 147.710938 74.101562 Z M 214.808594 14.28125 C 214.523438 14.484375 213.703125 14.796875 213.402344 15.371094 C 213.144531 15.855469 213.246094 17.011719 213.609375 17.261719 C 215.167969 18.347656 216.847656 19.296875 218.589844 20.070312 C 218.851562 20.183594 220.140625 19.042969 220.136719 18.492188 C 220.117188 16.808594 217 14.289062 214.808594 14.28125 Z M 144.851562 54.242188 C 144.082031 52.8125 143.515625 51.332031 142.566406 50.183594 C 142.136719 49.660156 140.785156 49.460938 140.109375 49.738281 C 139.605469 49.941406 139.125 51.277344 139.316406 51.886719 C 139.753906 53.257812 140.464844 54.625 141.371094 55.742188 C 141.847656 56.324219 143.027344 56.695312 143.773438 56.558594 C 144.21875 56.472656 144.433594 55.199219 144.851562 54.242188 Z M 183.84375 64.011719 C 182.878906 63.027344 182.359375 62.074219 181.644531 61.890625 C 181.050781 61.734375 179.78125 62.3125 179.578125 62.855469 C 178.949219 64.480469 178.441406 66.246094 178.382812 67.96875 C 178.335938 69.207031 179.550781 70.140625 180.628906 68.96875 C 181.882812 67.601562 182.695312 65.828125 183.84375 64.011719 Z M 107.945312 80.492188 C 108.097656 80.09375 108.753906 79.058594 108.527344 78.808594 C 107.175781 77.28125 105.8125 75.597656 104.082031 74.628906 C 102.695312 73.851562 101.328125 75.535156 101.847656 77.082031 C 102.394531 78.710938 105.679688 80.785156 107.945312 80.492188 Z M 87.050781 53.632812 C 87.878906 53.132812 88.707031 52.757812 89.347656 52.164062 C 89.519531 52.007812 89.242188 50.90625 88.9375 50.761719 C 87.21875 49.96875 85.457031 49.171875 83.625 48.753906 C 83.109375 48.636719 81.972656 49.667969 81.753906 50.375 C 81.597656 50.890625 82.316406 52.042969 82.925781 52.351562 C 84.144531 52.96875 85.554688 53.199219 87.050781 53.632812 Z M 228.601562 43.089844 C 226.839844 43.675781 226.023438 44.734375 226.953125 45.535156 C 228.476562 46.84375 230.363281 47.78125 232.214844 48.601562 C 232.601562 48.773438 233.796875 47.894531 234.089844 47.25 C 234.316406 46.761719 233.894531 45.542969 233.398438 45.253906 C 231.890625 44.371094 230.214844 43.789062 228.601562 43.089844 Z M 113.050781 41.382812 C 111.675781 42.300781 110.359375 43.023438 109.285156 44.015625 C 109.03125 44.25 109.511719 45.945312 109.746094 45.972656 C 111.214844 46.113281 112.863281 46.320312 114.164062 45.808594 C 115.246094 45.382812 115.9375 43.980469 116.796875 43.011719 C 115.660156 42.507812 114.523438 42.011719 113.050781 41.382812 Z M 182.847656 35.601562 C 179.488281 35.925781 176.75 38.140625 177.273438 39.847656 C 177.488281 40.523438 178.695312 41.320312 179.457031 41.328125 C 181.472656 41.34375 184.566406 38.191406 184.128906 36.707031 C 183.957031 36.125 183.042969 35.761719 182.847656 35.601562 Z M 244.179688 58.164062 C 245.050781 59.425781 245.757812 60.464844 246.476562 61.496094 C 247.257812 60.519531 248.53125 59.625 248.695312 58.546875 C 248.925781 57.074219 248.390625 55.453125 247.984375 53.953125 C 247.929688 53.75 246.296875 53.589844 246.140625 53.847656 C 245.375 55.128906 244.867188 56.5625 244.179688 58.164062 Z M 244.179688 58.164062 " fill-opacity="1" fill-rule="nonzero"/></g></g></g><g clip-path="url(#3501a6df06)"><g clip-path="url(#600ff5f719)"><g clip-path="url(#bc157637a9)"><path fill="#efa216" d="M 308.199219 111.902344 C 305.046875 116.8125 302.042969 118.175781 296.789062 116.285156 C 290.46875 114.023438 284.402344 114.195312 277.976562 115.894531 C 274.347656 116.855469 270.246094 116.925781 266.507812 116.371094 C 258.667969 115.21875 251.296875 115.746094 244.222656 119.609375 C 240.46875 121.65625 236.285156 122.234375 232.019531 121.6875 C 227.539062 121.109375 223.355469 122.046875 219.460938 124.222656 C 215.449219 126.46875 211.492188 126.300781 207.855469 123.722656 C 202.449219 119.886719 196.984375 120.085938 191.285156 122.773438 C 190 123.382812 188.664062 123.890625 187.425781 124.578125 C 181.136719 128.082031 174.585938 128.609375 167.714844 126.578125 C 165.523438 125.929688 163.25 125.574219 161 125.15625 C 157.140625 124.433594 153.457031 125.007812 149.949219 126.785156 C 148.46875 127.53125 146.960938 128.214844 145.449219 128.902344 C 142.445312 130.257812 139.382812 130.539062 136.226562 129.421875 C 135.257812 129.078125 134.265625 128.804688 133.277344 128.527344 C 130.191406 127.652344 127.417969 128.191406 125.308594 130.679688 C 122.183594 134.371094 118.308594 135.09375 113.957031 133.628906 C 109.152344 132.007812 104.675781 132.445312 100.300781 134.980469 C 95.695312 137.65625 91.128906 137.902344 86.464844 134.859375 C 83.632812 133.019531 80.464844 133.089844 77.382812 134.5 C 76.234375 135.027344 75.0625 135.519531 73.972656 136.148438 C 71.109375 137.820312 68.152344 137.953125 65.066406 136.929688 C 63.941406 136.558594 62.792969 136.246094 61.644531 135.964844 C 58.246094 135.121094 55.445312 135.988281 53.214844 138.78125 C 51.496094 140.941406 49.726562 143.082031 47.800781 145.058594 C 46.394531 146.5 44.605469 147.648438 42.507812 146.464844 C 40.402344 145.277344 39.632812 143.207031 40.285156 140.964844 C 40.953125 138.644531 41.929688 136.375 43.027344 134.222656 C 44.585938 131.1875 44.492188 130.664062 41.476562 129.457031 C 39.539062 128.679688 38.519531 127.175781 39.035156 125.148438 C 39.441406 123.574219 40.125 121.980469 41.0625 120.664062 C 44.042969 116.519531 47.992188 113.550781 52.851562 111.898438 C 56.457031 110.679688 59.617188 111.195312 62.296875 114.226562 C 65.5 117.84375 67.835938 117.835938 71.171875 114.320312 C 72.90625 112.488281 74.40625 110.433594 76.074219 108.535156 C 79.445312 104.679688 82.140625 104.476562 86.023438 107.761719 C 87.164062 108.730469 88.21875 109.804688 89.34375 110.804688 C 92.632812 113.742188 95.691406 114.273438 99.546875 112.160156 C 102.097656 110.765625 104.46875 109.019531 106.800781 107.28125 C 112.050781 103.371094 115.8125 103.167969 121.386719 106.65625 C 123.0625 107.707031 124.707031 108.820312 126.472656 109.6875 C 129.792969 111.320312 132.484375 110.828125 135.152344 108.304688 C 135.667969 107.816406 136.191406 107.316406 136.609375 106.753906 C 140.855469 101.011719 146.734375 99.832031 153.121094 101.539062 C 158.898438 103.082031 164.46875 105.394531 170.132812 107.375 C 170.730469 107.578125 171.332031 107.785156 171.910156 108.019531 C 173.292969 108.582031 174.113281 108.207031 174.597656 106.738281 C 175.132812 105.09375 175.71875 103.433594 176.535156 101.914062 C 178.921875 97.4375 181.753906 96.488281 186.34375 98.546875 C 188.429688 99.484375 190.421875 100.640625 192.507812 101.574219 C 199.679688 104.777344 203.679688 103.652344 208.132812 97.285156 C 209.039062 95.988281 209.917969 94.664062 210.945312 93.46875 C 213.273438 90.769531 215.625 90.328125 218.734375 92.101562 C 220.582031 93.152344 222.3125 94.425781 224.058594 95.648438 C 227.394531 98 230.820312 98.085938 234.296875 96.082031 C 236.210938 94.980469 238.058594 93.757812 239.90625 92.550781 C 244.5 89.539062 249.0625 89.574219 253.679688 92.519531 C 255.539062 93.707031 257.417969 94.925781 259.425781 95.824219 C 263.042969 97.445312 264.96875 96.390625 265.9375 92.535156 C 266.480469 90.355469 267.683594 89.453125 270.429688 89.847656 C 273.621094 90.304688 276.757812 91.15625 279.925781 91.804688 C 283.085938 92.449219 286.238281 93.234375 289.429688 93.621094 C 292.671875 94.019531 295.445312 92.707031 297.773438 90.425781 C 299.234375 88.992188 300.660156 87.472656 302.308594 86.277344 C 305.925781 83.652344 309.925781 84.246094 312.445312 87.917969 C 313.953125 90.113281 315.054688 92.601562 316.179688 95.027344 C 317.324219 97.511719 318.796875 99.5 321.628906 100.183594 C 323.585938 100.660156 324.144531 102.167969 324.070312 104.003906 C 323.890625 108.574219 319.078125 114.34375 314.636719 115.4375 C 311.484375 116.21875 309.722656 114.480469 308.199219 111.902344 Z M 308.199219 111.902344 " fill-opacity="1" fill-rule="nonzero"/></g></g></g><g clip-path="url(#8c95c5289c)"><g clip-path="url(#215372ddf5)"><g clip-path="url(#8336dd34c2)"><path fill="#efa216" d="M 187.113281 164.261719 C 228.859375 160.140625 270.609375 156.023438 312.355469 151.902344 C 316.070312 151.535156 316.722656 152.042969 317.085938 155.648438 C 317.519531 159.96875 317.71875 164.320312 318.414062 168.59375 C 319.882812 177.613281 316.371094 184.605469 309.894531 190.417969 C 301.792969 197.691406 292.007812 201.480469 281.488281 203.558594 C 278.199219 204.207031 274.851562 204.582031 271.507812 204.910156 C 217.691406 210.242188 163.882812 215.558594 110.0625 220.847656 C 98.230469 222.007812 86.65625 221.054688 75.667969 216.089844 C 70.050781 213.550781 65.027344 210.160156 61.917969 204.671875 C 60.691406 202.519531 59.78125 200.023438 59.425781 197.578125 C 58.605469 191.910156 58.199219 186.183594 57.65625 180.476562 C 57.410156 177.878906 58.070312 177.035156 60.644531 176.738281 C 63.738281 176.382812 66.835938 176.125 69.9375 175.820312 C 109 171.964844 148.050781 168.113281 187.113281 164.261719 C 187.113281 164.265625 187.113281 164.261719 187.113281 164.261719 Z M 187.113281 164.261719 " fill-opacity="1" fill-rule="nonzero"/></g></g></g><g fill="#b81821" fill-opacity="1"><g transform="translate(3.632144, 170.792612)"><g><path d="M 44.890625 -11.21875 L 37.578125 -20.054688 C 34.058594 -16.382812 29.742188 -14.503906 25.761719 -14.109375 C 18.902344 -13.433594 14.023438 -16.554688 13.667969 -22.960938 C 13.15625 -31.640625 18.160156 -39.199219 27.835938 -40.15625 C 29.414062 -40.308594 31.347656 -40.363281 32.988281 -39.902344 L 32.804688 -32.609375 L 44.058594 -33.71875 L 45.027344 -47.738281 C 41.296875 -51.179688 34.710938 -52.609375 28.605469 -52.007812 C 11.109375 -50.28125 -0.0390625 -38.304688 0.078125 -23.078125 C -0.0390625 -8.101562 10.160156 -0.242188 24.902344 -1.765625 C 32.511719 -2.585938 39.03125 -5.304688 44.890625 -11.21875 Z M 44.890625 -11.21875 "/></g></g></g><g fill="#b81821" fill-opacity="1"><g transform="translate(47.871615, 166.42789)"><g><path d="M 33.726562 -19.746094 L 33.035156 -14.828125 L 19.3125 -13.472656 L 19.902344 -20.875 L 31.425781 -22.011719 L 32.238281 -32.761719 L 20.710938 -31.625 L 21.28125 -39.160156 L 34.113281 -40.425781 L 34.039062 -35.570312 L 44.328125 -36.585938 L 45.550781 -52.988281 L 3.425781 -48.832031 L 2.621094 -38.011719 L 7.90625 -38.535156 L 5.875 -11.386719 L 0.589844 -10.863281 L -0.273438 0.0273438 L 43.289062 -4.269531 L 44.566406 -20.816406 Z M 33.726562 -19.746094 "/></g></g></g><g fill="#b81821" fill-opacity="1"><g transform="translate(92.65982, 162.009029)"><g><path d="M 40.808594 -47.667969 C 36.101562 -51.152344 29.773438 -52.121094 23.253906 -51.480469 C 11.523438 -50.320312 0.539062 -45.082031 1.777344 -32.527344 C 2.734375 -22.851562 11.65625 -20.894531 20.378906 -20.921875 C 25.300781 -20.921875 27.953125 -20.007812 28.15625 -17.949219 C 28.445312 -15 25.234375 -13.15625 20.363281 -12.675781 C 17.894531 -12.433594 15.054688 -12.429688 12.269531 -13.265625 L 12.488281 -18.757812 L 0.757812 -17.601562 L 0.0078125 -4.851562 C 6.3125 -0.621094 13.582031 -0.648438 19.964844 -1.277344 C 33.34375 -2.597656 42.988281 -8.050781 41.777344 -20.332031 C 40.847656 -29.730469 31.671875 -32.152344 23.214844 -32.21875 C 18.84375 -32.269531 15.710938 -32.445312 15.441406 -35.191406 C 15.066406 -38.964844 19.714844 -40.324219 22.457031 -40.59375 C 24.652344 -40.808594 26.664062 -40.800781 28.5 -40.429688 L 28.226562 -34.789062 L 39.957031 -35.945312 C 40.265625 -39.855469 40.503906 -43.757812 40.808594 -47.667969 Z M 40.808594 -47.667969 "/></g></g></g><g fill="#b81821" fill-opacity="1"><g transform="translate(134.430044, 157.887926)"><g><path d="M 2.417969 -37.992188 L 8.042969 -38.546875 L 6.011719 -11.398438 L 0.386719 -10.84375 L -0.480469 0.046875 L 24.492188 -2.417969 L 25.359375 -13.308594 L 19.664062 -12.746094 L 21.695312 -39.894531 L 27.390625 -40.457031 L 28.191406 -51.273438 L 3.21875 -48.808594 Z M 2.417969 -37.992188 "/></g></g></g><g fill="#b81821" fill-opacity="1"><g transform="translate(161.110376, 155.25561)"><g><path d="M 24.371094 -40.160156 L 25.175781 -50.976562 L 0.542969 -48.546875 L -0.257812 -37.730469 L 4.75 -38.222656 L 18.476562 -1.613281 L 31.855469 -2.933594 L 51.195312 -42.804688 L 56.203125 -43.300781 L 57.007812 -54.117188 L 31.828125 -51.632812 L 31.027344 -40.816406 L 36.308594 -41.335938 L 26.269531 -18.800781 L 19.707031 -39.699219 Z M 24.371094 -40.160156 "/></g></g></g><g fill="#b81821" fill-opacity="1"><g transform="translate(214.540969, 149.98408)"><g><path d="M 8.042969 -38.546875 L 6.011719 -11.398438 L 0.246094 -10.832031 L -0.617188 0.0625 L 24.011719 -2.367188 L 24.78125 -12.144531 L 19.457031 -12.035156 L 19.902344 -18.035156 L 25.597656 -18.597656 L 30.667969 -10.023438 L 30.117188 -2.972656 L 49.257812 -4.859375 L 50.125 -15.753906 L 43.882812 -15.136719 L 39.210938 -21.742188 C 47.660156 -25.96875 50.554688 -31.035156 49.75 -39.199219 C 49.011719 -46.675781 44.042969 -52.835938 32.308594 -51.679688 L 3.082031 -48.796875 L 2.28125 -37.980469 Z M 21.578125 -39.675781 L 31.457031 -40.652344 C 34.476562 -40.949219 36.058594 -38.957031 36.300781 -36.488281 C 36.65625 -32.917969 34.585938 -29.320312 30.675781 -28.933594 L 20.65625 -27.945312 Z M 21.578125 -39.675781 "/></g></g></g><g fill="#b81821" fill-opacity="1"><g transform="translate(264.884992, 145.017076)"><g><path d="M 53.722656 -34.050781 C 52.4375 -47.085938 42.394531 -53.367188 28.535156 -52 C 10.699219 -50.242188 -1.519531 -37.882812 0.273438 -19.699219 C 1.574219 -6.527344 11.664062 -0.457031 25.519531 -1.824219 C 43.5625 -3.605469 55.550781 -15.527344 53.722656 -34.050781 Z M 40.117188 -30.835938 C 41.035156 -21.507812 34.738281 -14.441406 25.613281 -13.542969 C 18.886719 -12.878906 14.570312 -16.609375 13.914062 -23.261719 C 13.027344 -32.25 19.117188 -39.363281 27.898438 -40.230469 C 34.828125 -40.914062 39.460938 -37.492188 40.117188 -30.835938 Z M 40.117188 -30.835938 "/></g></g></g><g fill="#b81821" fill-opacity="1"><g transform="translate(318.041209, 139.772616)"><g><path d="M 53.722656 -34.050781 C 52.4375 -47.085938 42.394531 -53.367188 28.535156 -52 C 10.699219 -50.242188 -1.519531 -37.882812 0.273438 -19.699219 C 1.574219 -6.527344 11.664062 -0.457031 25.519531 -1.824219 C 43.5625 -3.605469 55.550781 -15.527344 53.722656 -34.050781 Z M 40.117188 -30.835938 C 41.035156 -21.507812 34.738281 -14.441406 25.613281 -13.542969 C 18.886719 -12.878906 14.570312 -16.609375 13.914062 -23.261719 C 13.027344 -32.25 19.117188 -39.363281 27.898438 -40.230469 C 34.828125 -40.914062 39.460938 -37.492188 40.117188 -30.835938 Z M 40.117188 -30.835938 "/></g></g></g></svg>